<svg width="99" height="40" viewBox="0 0 99 40" fill="none" xmlns="http://www.w3.org/2000/svg">
<path d="M0 20.3192L7.063 1.21667H10.9287L17.8868 20.3192H14.2439L12.3439 14.9247H5.62157L3.7084 20.3192H0ZM6.51264 12.2925H11.4397C9.86724 7.28015 9.05917 4.69145 9.01549 4.5264L6.51264 12.2925Z" fill="white"/>
<path d="M24.6484 20.5147C23.6613 20.5147 22.8401 20.4018 22.1849 20.1759C21.5385 19.9414 21.0274 19.5722 20.6518 19.0683C20.2761 18.5645 20.014 17.9651 19.8655 17.2701C19.717 16.5752 19.6428 15.7108 19.6428 14.6771V0.721517L23.076 0.5V14.6119C23.076 15.8976 23.2289 16.7706 23.5346 17.231C23.8404 17.6828 24.4344 17.9086 25.3167 17.9086C25.7535 17.9086 26.3083 17.8608 26.9809 17.7653L27.0727 20.202C27.0639 20.202 26.9547 20.2237 26.7451 20.2671C26.5441 20.3106 26.3476 20.3453 26.1554 20.3714C25.9719 20.4061 25.7361 20.4365 25.4478 20.4626C25.1595 20.4973 24.8931 20.5147 24.6484 20.5147Z" fill="white"/>
<path d="M32.5763 20.5929C31.2397 20.5929 30.1565 20.228 29.3265 19.4983C28.5054 18.7599 28.0948 17.7001 28.0948 16.3189C28.0948 14.8334 28.584 13.7345 29.5624 13.0222C30.5408 12.3012 32.0172 11.8451 33.9915 11.654C34.2623 11.6193 34.555 11.5845 34.8695 11.5498C35.184 11.515 35.5378 11.4803 35.9309 11.4455C36.324 11.4108 36.6341 11.3804 36.8613 11.3543V10.5986C36.8613 9.72987 36.6604 9.10007 36.2585 8.70916C35.8566 8.30956 35.2451 8.10976 34.424 8.10976C33.2533 8.10976 31.8075 8.43552 30.0866 9.08704C30.0778 9.06098 29.9337 8.66572 29.6541 7.90127C29.3746 7.13682 29.2304 6.74591 29.2217 6.72853C30.9165 6.00752 32.751 5.64701 34.7253 5.64701C36.6647 5.64701 38.0756 6.06833 38.9579 6.91096C39.8402 7.74491 40.2814 9.10007 40.2814 10.9764V20.3192H37.7392C37.7305 20.2845 37.6344 19.9935 37.451 19.4462C37.2675 18.8989 37.1758 18.6079 37.1758 18.5732C36.4594 19.2681 35.7562 19.7807 35.066 20.1108C34.3846 20.4322 33.5547 20.5929 32.5763 20.5929ZM33.5067 18.1692C34.3017 18.1692 34.9918 17.9825 35.5771 17.6089C36.1711 17.2267 36.5948 16.7663 36.8482 16.2277V13.4653C36.822 13.4653 36.5905 13.4826 36.1537 13.5174C35.7256 13.5521 35.4941 13.5695 35.4592 13.5695C34.0702 13.6911 33.0524 13.9517 32.406 14.3513C31.7595 14.7509 31.4363 15.3938 31.4363 16.2798C31.4363 16.8879 31.6154 17.357 31.9735 17.6871C32.3317 18.0085 32.8428 18.1692 33.5067 18.1692Z" fill="white"/>
<path d="M49.1003 20.5929C47.2221 20.5929 45.7457 19.9066 44.6712 18.5341C43.5967 17.1615 43.0594 15.3286 43.0594 13.0352C43.0594 10.8114 43.5923 9.02623 44.6581 7.67975C45.7326 6.32459 47.209 5.64701 49.0872 5.64701C51.1314 5.64701 52.5772 6.36803 53.4246 7.81006C53.3373 6.95874 53.2936 6.13782 53.2936 5.34731V0.721517L56.7268 0.5V20.3192H53.7522L53.3722 18.3647C53.2237 18.5992 53.0839 18.8034 52.9529 18.9771C52.8306 19.1422 52.6471 19.3376 52.4025 19.5635C52.1579 19.7807 51.8915 19.9587 51.6032 20.0977C51.3236 20.228 50.9655 20.341 50.5287 20.4365C50.1006 20.5408 49.6245 20.5929 49.1003 20.5929ZM49.9128 17.9998C52.2191 17.9998 53.3897 16.4405 53.4246 13.3219C53.4246 11.5585 53.1276 10.2728 52.5336 9.46492C51.9395 8.65703 51.0528 8.25309 49.8735 8.25309C48.8426 8.25309 48.0171 8.66572 47.3968 9.49098C46.7853 10.3076 46.4795 11.515 46.4795 13.1134C46.4795 14.7031 46.7853 15.915 47.3968 16.7489C48.0171 17.5829 48.8557 17.9998 49.9128 17.9998Z" fill="white"/>
<path d="M65.454 20.5929C63.5758 20.5929 62.0994 19.9066 61.0249 18.5341C59.9504 17.1615 59.4131 15.3286 59.4131 13.0352C59.4131 10.8114 59.946 9.02623 61.0118 7.67975C62.0863 6.32459 63.5627 5.64701 65.4409 5.64701C67.4851 5.64701 68.9309 6.36803 69.7783 7.81006C69.6909 6.95874 69.6473 6.13782 69.6473 5.34731V0.721517L73.0805 0.5V20.3192H70.1059L69.7259 18.3647C69.5774 18.5992 69.4376 18.8034 69.3065 18.9771C69.1842 19.1422 69.0008 19.3376 68.7562 19.5635C68.5116 19.7807 68.2451 19.9587 67.9568 20.0977C67.6773 20.228 67.3191 20.341 66.8823 20.4365C66.4543 20.5408 65.9782 20.5929 65.454 20.5929ZM66.2664 17.9998C68.5727 17.9998 69.7433 16.4405 69.7783 13.3219C69.7783 11.5585 69.4813 10.2728 68.8872 9.46492C68.2932 8.65703 67.4065 8.25309 66.2271 8.25309C65.1963 8.25309 64.3707 8.66572 63.7505 9.49098C63.139 10.3076 62.8332 11.515 62.8332 13.1134C62.8332 14.7031 63.139 15.915 63.7505 16.7489C64.3707 17.5829 65.2094 17.9998 66.2664 17.9998Z" fill="white"/>
<path d="M76.684 20.3192V5.99883H80.1173V20.3192H76.684ZM76.684 3.91397V0.995155H80.1304V3.91397H76.684Z" fill="white"/>
<path d="M83.7077 20.3192V5.99883H86.4727L86.8527 7.81006C88.3203 6.36803 89.9496 5.64701 91.7404 5.64701C93.4177 5.64701 94.6713 6.12914 95.5013 7.09339C96.3399 8.04895 96.7592 9.43886 96.7592 11.2631V20.3192H93.3129V11.6801C93.3042 10.5247 93.1163 9.66037 92.7494 9.08704C92.3825 8.5137 91.723 8.22703 90.7707 8.22703C90.0282 8.22703 89.3468 8.41814 88.7265 8.80037C88.115 9.17391 87.6695 9.64734 87.3899 10.2207C87.224 10.8983 87.141 11.9407 87.141 13.348V20.3192H83.7077Z" fill="white"/>
<path d="M0.0393066 35.5411C23.3253 19.4013 50.8175 36.5472 75.8277 35.1099C84.1265 34.576 92.6717 32.502 99 26.157C96.4401 30.0634 92.9497 33.1436 88.9012 35.0688C59.969 49.4427 29.161 23.159 0.0771999 35.5411H0.0393066Z" fill="white"/>
</svg>
