<svg width="80" height="34" viewBox="0 0 80 34" fill="none" xmlns="http://www.w3.org/2000/svg">
<g clip-path="url(#clip0_701_4161)">
<path fill-rule="evenodd" clip-rule="evenodd" d="M64.0606 0.0429688L75.9394 32.346H80.0606V32.5884H67.0303V32.346H70.8485L66.9697 21.7399H58.9697L59.0303 21.8611C59.3333 22.7702 59.5152 23.8005 59.5152 24.7702V28.7702C59.5152 30.8308 60.4242 32.8915 62.1212 32.8915C63.1515 32.8915 63.9394 32.5278 64.9091 31.6793L65.0303 31.8005C64 32.8915 62.7273 33.3763 60.7879 33.3763C59.3333 33.3763 58.1212 33.0127 57.1515 32.346L56.9697 32.2248C55.697 31.2551 54.8485 29.6187 54.4849 27.4369L54.4242 27.0733L54.3636 26.5278V26.4066L52.1818 32.346H55.2727V32.5884H48.7879V32.346H51.9394L54.3636 25.8005C54.3636 25.4369 54.303 25.0127 54.303 24.649V21.8611C54.303 18.346 51.697 16.346 47.1515 16.346H42.6667V32.4066H46.5455V32.649H31.4545V32.4066H35.2727L31.3939 21.8005H20.5455L16.6667 32.2854H16.8485C21.9394 31.4369 24.2424 27.5581 24.303 23.4975H24.5455V32.7096H0L18.2424 1.3763H10.9091C4.84848 1.3763 2.06061 6.04297 2 10.7096H1.81818V1.13388H23.9394L23.8182 1.3763L5.69697 32.4066H15.2121C15.4545 32.4066 15.697 32.4066 15.9394 32.4066C16.1212 32.4066 16.2424 32.4066 16.4242 32.346H16.4848L28.303 0.0429688H28.5455L37.8788 25.4975V1.3763H34.0606V1.13388H47.2727C53.6364 1.13388 58.0606 4.4066 58.0606 9.07327C58.0606 12.4672 55.0303 15.3157 50.5455 16.1036L49.697 16.2248L50.5455 16.2854C53.2727 16.5884 55.4545 17.4369 56.9697 18.7702L63.8182 0.0429688H64.0606ZM58.8485 21.4975L66.7879 21.5581L61.4545 7.07327L57.0909 19.0127L57.3333 19.2551C58 19.8611 58.4848 20.649 58.8485 21.4975ZM42.6667 16.1036V1.3763H46.0606C50.6061 1.3763 53.0303 4.04297 53.0303 9.13388C53.0303 14.5278 51.6364 16.1642 47.1515 16.1642C47.1515 16.1036 42.6667 16.1036 42.6667 16.1036ZM26 7.01267L20.6667 21.4975H31.3333L26 7.01267Z" fill="#A4A4A4"/>
</g>
<defs>
<clipPath id="clip0_701_4161">
<rect width="80" height="33.3333" fill="white" transform="translate(0 0.0429688)"/>
</clipPath>
</defs>
</svg>
