<svg width="80" height="39" viewBox="0 0 80 39" fill="none" xmlns="http://www.w3.org/2000/svg">
<g clip-path="url(#clip0_701_4143)">
<path d="M80.0002 9.25393C80.0002 9.54337 79.6009 9.61573 79.2017 9.72427C76.6608 10.484 74.9185 11.9674 71.3251 18.4436C67.7316 24.9559 55.1726 58.2412 0.726165 22.351C0.617272 22.2786 0.0728078 21.953 0.0365101 21.7359C0.000212504 21.6274 0.0728078 21.555 0.145403 21.5188C0.254296 21.4827 0.363189 21.5188 0.472082 21.5188C0.907654 21.6274 1.88769 21.8083 3.1944 22.1339C8.60275 23.364 22.1055 24.775 31.3251 23.4364C33.6844 23.1107 35.6808 22.7489 37.8224 21.8806C39.2743 21.3018 39.238 20.7952 39.1291 20.542C39.0202 20.3611 38.875 20.1078 37.0238 20.542C34.9911 20.94 31.9058 21.0123 27.5138 20.3973C19.3106 19.2395 12.8859 15.3321 12.3051 14.898C12.3051 14.898 10.8895 14.0658 11.0347 13.7402C11.1073 13.5955 11.3977 13.6678 11.5066 13.704L12.051 13.7402C20.7625 13.9935 28.9657 10.5564 41.0528 3.21194C47.1508 -0.478388 53.5029 0.0643069 56.5882 2.77778C56.5882 2.77778 62.0329 6.8299 56.9875 14.2467C55.826 16.0557 57.0601 16.6708 61.924 11.4247C66.7879 6.21484 72.1599 3.17576 78.0038 7.66203L79.6372 8.7836C79.6372 8.89214 79.9639 9.10921 80.0002 9.25393Z" fill="#A4A4A4"/>
</g>
<defs>
<clipPath id="clip0_701_4143">
<rect width="80" height="38.1333" fill="white" transform="translate(0 0.643066)"/>
</clipPath>
</defs>
</svg>
