<svg width="80" height="78" viewBox="0 0 80 78" fill="none" xmlns="http://www.w3.org/2000/svg">
<g clip-path="url(#clip0_701_4164)">
<path d="M27.6522 73.4134H56.6087C65.7391 73.4134 70.6957 65.8369 72.8696 61.3085L74.1739 58.0863H79.4783L69.3043 77.4193H0.26087L2.08696 73.3263H4.69565C4.78261 73.3263 4.78261 73.3263 4.86957 73.3263C5.21739 73.3263 5.56522 73.3263 5.91304 73.3263H7.91304C11.2174 73.2392 14.7826 72.1942 17.2174 66.0111C17.4783 65.4015 17.6522 64.879 17.913 64.4436L24.7826 46.8522L10 12.4533C9.65217 11.9308 9.3913 11.2341 9.04348 10.5374C7.21739 6.27018 4.52174 4.96389 2.52174 4.52847H0V0H23.913V4.52847H22.7826C22.6957 4.52847 22.6087 4.52847 22.6087 4.52847C20.6087 4.52847 18.5217 4.61555 19.8261 7.66356C19.913 7.83773 19.913 8.0119 20 8.09899L30.5217 32.483L36.2609 17.7655C36.9565 15.4142 35.8261 14.6304 34.6957 14.4563H31.8261L34 9.40528H58.8696L56.6956 14.4563H52.7826C51.0435 14.8917 48.7826 16.2851 46.8696 20.1168L36.4348 46.3297L41.7391 58.5217L41.8261 58.6088C42.087 59.3055 42.5217 59.6538 43.1304 58.6088C43.1304 58.5217 43.2174 58.5217 43.2174 58.4346L64 12.6275C64.1739 12.1049 64.4348 11.4953 64.7826 10.7986C66.9565 6.00893 64.7826 4.78972 63.0435 4.52847H60V0H80V4.52847H76.6956C75.3913 4.78972 73.3913 5.5735 71.5652 8.27316L43.913 69.3204L34.5217 69.1462L30.7826 60.6118L26.4348 71.5846C26.4348 71.6717 26.4348 71.7588 26.3478 71.8458C26 73.0651 26.6087 73.4134 27.6522 73.4134Z" fill="#A4A4A4"/>
</g>
<defs>
<clipPath id="clip0_701_4164">
<rect width="80" height="77.4193" fill="white"/>
</clipPath>
</defs>
</svg>
