<svg width="80" height="29" viewBox="0 0 80 29" fill="none" xmlns="http://www.w3.org/2000/svg">
<g clip-path="url(#clip0_701_4166)">
<path d="M79.9999 28.6245V0.833008H45.1953L57.4361 28.6245H79.9999Z" fill="#A4A4A4"/>
<path d="M14.9917 19.0634C13.3748 20.6044 11.7822 21.6318 9.24999 21.6318C5.34128 21.6318 2.39153 18.4771 2.39153 14.2974C2.39153 10.1178 5.34128 7.01157 9.24999 7.01157C11.3622 7.01157 13.0325 7.73846 14.8339 9.44908L14.9528 9.56296L16.5722 7.82569L16.4556 7.71666C14.8484 6.2023 12.8649 4.80909 9.27184 4.80909C3.95502 4.80182 -0.0556641 8.90634 -0.0556641 14.3483C-0.0556641 19.7903 3.92103 23.8415 9.19901 23.8415C12.8795 23.8415 14.9868 22.2084 16.5649 20.6141L16.679 20.4978L15.1058 18.9568L14.9917 19.0634Z" fill="#A4A4A4"/>
<path d="M23.3698 9.56543C19.6164 9.56543 16.7832 12.6281 16.7832 16.7011C16.7832 20.7741 19.7281 23.8416 23.6295 23.8416C25.9383 23.8416 27.6766 23.0517 29.2668 21.2805L29.3736 21.1593L27.8951 19.8364L27.7859 19.9503C26.5866 21.203 25.2828 21.7869 23.6805 21.7869C21.2722 21.7869 19.4683 20.1054 19.1479 17.5855H29.7305L29.7475 17.4425C29.7686 17.2308 29.7775 17.018 29.7742 16.8053C29.7742 12.473 27.1911 9.56543 23.3698 9.56543ZM19.1479 15.79C19.4635 13.292 21.1581 11.562 23.3188 11.562C25.9893 11.562 27.1838 13.7136 27.4144 15.79H19.1479Z" fill="#A4A4A4"/>
<path d="M38.5603 12.0805V9.61629H38.4049C36.1932 9.52421 34.251 10.7187 33.0929 12.8098V9.84405H30.7744V23.5314H33.0929V18.0458C33.0929 14.4113 35.1153 12.0805 38.2422 12.0805H38.5603Z" fill="#A4A4A4"/>
<path d="M65.0594 5.11182L58.6913 20.4395L52.35 5.11182H49.7158L57.6522 23.6597H59.6794L67.6158 5.11182H65.0594Z" fill="white"/>
<path d="M43.6608 9.6626H39.4948V11.7464H43.5419C45.9527 11.7754 47.2807 13.0111 47.2807 15.2282V15.4705C45.9926 15.1124 44.6604 14.9378 43.3234 14.9519C39.638 14.9519 37.436 16.6359 37.436 19.4562C37.436 22.4462 40.1066 23.8176 42.5975 23.8176C44.9281 23.8176 46.4018 22.7927 47.2807 21.8065V23.5341H49.5264V15.2015C49.5264 11.63 47.4457 9.6626 43.6681 9.6626M42.9859 21.9228C41.4443 21.9228 39.7813 21.1329 39.7813 19.3957C39.7813 17.7505 41.1821 16.7668 43.5297 16.7668C44.8066 16.7671 46.0772 16.9449 47.3049 17.295V18.458C47.3049 20.4303 45.4501 21.9156 42.9859 21.9156" fill="#A4A4A4"/>
<path d="M3.08096 28.4211C2.92834 28.5602 2.7267 28.6334 2.52015 28.6246H1.76025V26.4633H2.52015C2.62248 26.4584 2.72477 26.4738 2.82106 26.5088C2.91734 26.5437 3.00569 26.5975 3.08096 26.6668C3.32374 26.9091 3.29946 27.2144 3.29946 27.527C3.29946 27.8395 3.31403 28.186 3.08096 28.4211ZM2.85518 26.9019C2.80739 26.8531 2.74982 26.8149 2.68623 26.7898C2.62263 26.7648 2.55446 26.7534 2.48616 26.7565H2.088V28.329H2.48616C2.5546 28.3333 2.62315 28.3226 2.68694 28.2974C2.75073 28.2723 2.80817 28.2334 2.85518 28.1836C2.96686 28.06 2.97171 27.825 2.97171 27.527C2.97171 27.229 2.97171 27.0278 2.85518 26.9019Z" fill="#A4A4A4"/>
<path d="M3.78467 28.6247V26.4609H5.1685V26.7565H4.11242V27.3889H5.01312V27.6797H4.11242V28.329H5.1685V28.6247H3.78467Z" fill="#A4A4A4"/>
<path d="M6.31684 28.6247H6.06192L5.35059 26.4609H5.6929L6.1906 28.0334L6.68829 26.4609H7.03546L6.31684 28.6247Z" fill="#A4A4A4"/>
<path d="M7.33447 28.6247V26.4609H8.7183V26.7565H7.66222V27.3889H8.56293V27.6797H7.66222V28.329H8.7183V28.6247H7.33447Z" fill="#A4A4A4"/>
<path d="M9.16748 28.6247V26.4609H9.49523V28.329H10.5392V28.6247H9.16748Z" fill="#A4A4A4"/>
<path d="M12.1047 28.4112C12.0312 28.4883 11.9427 28.5496 11.8446 28.5912C11.7464 28.6329 11.6408 28.6541 11.5342 28.6535C11.4279 28.6544 11.3226 28.6333 11.2248 28.5916C11.1271 28.5499 11.039 28.4885 10.9661 28.4112C10.7525 28.198 10.7549 27.9581 10.7549 27.5438C10.7549 27.1295 10.7549 26.8872 10.9661 26.674C11.039 26.5967 11.1271 26.5353 11.2248 26.4936C11.3226 26.4519 11.4279 26.4308 11.5342 26.4317C11.6408 26.4311 11.7464 26.4523 11.8446 26.4939C11.9427 26.5356 12.0312 26.5969 12.1047 26.674C12.3184 26.8872 12.3111 27.1271 12.3111 27.5438C12.3111 27.9606 12.3111 28.198 12.1047 28.4112ZM11.8619 26.8726C11.8199 26.8299 11.7696 26.7961 11.7141 26.7732C11.6586 26.7503 11.5991 26.7388 11.5391 26.7394C11.479 26.7384 11.4193 26.7497 11.3638 26.7726C11.3082 26.7955 11.258 26.8296 11.2162 26.8726C11.1093 26.9865 11.0875 27.1149 11.0875 27.5438C11.0875 27.9727 11.1093 28.0987 11.2162 28.215C11.2583 28.2576 11.3086 28.2913 11.3641 28.3142C11.4195 28.3371 11.479 28.3487 11.5391 28.3482C11.599 28.3483 11.6584 28.3365 11.7138 28.3137C11.7692 28.2908 11.8195 28.2573 11.8619 28.215C11.9663 28.0987 11.9882 27.9727 11.9882 27.5438C11.9882 27.1149 11.9663 26.9865 11.8619 26.8726Z" fill="#A4A4A4"/>
<path d="M13.6199 27.774H13.1343V28.6244H12.7993V26.4631H13.6199C13.7095 26.4577 13.7993 26.4706 13.8837 26.5011C13.9681 26.5316 14.0454 26.579 14.1107 26.6403C14.1761 26.7017 14.2282 26.7758 14.2638 26.8581C14.2994 26.9403 14.3178 27.029 14.3178 27.1185C14.3178 27.2081 14.2994 27.2968 14.2638 27.379C14.2282 27.4612 14.1761 27.5353 14.1107 27.5967C14.0454 27.6581 13.9681 27.7055 13.8837 27.736C13.7993 27.7665 13.7095 27.7794 13.6199 27.774ZM13.5956 26.7684H13.1101V27.4953H13.5956C13.6922 27.4953 13.7848 27.457 13.8531 27.3889C13.9214 27.3207 13.9598 27.2283 13.9598 27.1319C13.9598 27.0355 13.9214 26.943 13.8531 26.8749C13.7848 26.8067 13.6922 26.7684 13.5956 26.7684Z" fill="#A4A4A4"/>
<path d="M14.7124 28.6247V26.4609H16.0962V26.7565H15.0402V27.3889H15.9409V27.6797H15.0402V28.329H16.0962V28.6247H14.7124Z" fill="#A4A4A4"/>
<path d="M17.8661 28.4211C17.7135 28.5602 17.5119 28.6334 17.3053 28.6246H16.5454V26.4633H17.3053C17.4076 26.4584 17.5099 26.4738 17.6062 26.5088C17.7025 26.5437 17.7908 26.5975 17.8661 26.6668C18.1089 26.9091 18.0846 27.2144 18.0846 27.527C18.0846 27.8395 18.0992 28.186 17.8661 28.4211ZM17.6403 26.9019C17.5925 26.8531 17.535 26.8149 17.4714 26.7898C17.4078 26.7648 17.3396 26.7534 17.2713 26.7565H16.8732V28.329H17.2713C17.3398 28.3333 17.4083 28.3226 17.4721 28.2974C17.5359 28.2723 17.5933 28.2334 17.6403 28.1836C17.752 28.06 17.7544 27.825 17.7544 27.527C17.7544 27.229 17.7544 27.0278 17.6403 26.9019Z" fill="#A4A4A4"/>
<path d="M21.0683 28.6247H20.7818L20.3399 27.1079L19.9029 28.6247H19.6165L19.0508 26.4609H19.398L19.7743 28.0068L20.2088 26.4609H20.4735L20.9105 28.0068L21.2868 26.4609H21.6339L21.0683 28.6247Z" fill="#A4A4A4"/>
<path d="M22.2775 26.4634H21.9497V28.6247H22.2775V26.4634Z" fill="#A4A4A4"/>
<path d="M23.5763 26.7565V28.6247H23.2462V26.7565H22.6514V26.4609H24.1712V26.7565H23.5763Z" fill="#A4A4A4"/>
<path d="M25.754 28.6247V27.6797H24.8727V28.6247H24.5449V26.4609H24.8727V27.3865H25.754V26.4609H26.0817V28.6247H25.754Z" fill="#A4A4A4"/>
<path d="M28.6962 28.4211C28.6211 28.49 28.5332 28.5435 28.4373 28.5784C28.3415 28.6134 28.2397 28.6291 28.1378 28.6246H27.3755V26.4633H28.1378C28.2398 26.4583 28.3417 26.4738 28.4376 26.5087C28.5335 26.5437 28.6214 26.5974 28.6962 26.6668C28.939 26.9091 28.9147 27.2144 28.9147 27.527C28.9147 27.8396 28.9317 28.1861 28.6962 28.4211ZM28.4704 26.9019C28.4237 26.8524 28.3666 26.8137 28.3033 26.7886C28.2399 26.7635 28.1719 26.7525 28.1038 26.7565H27.7057V28.329H28.1038C28.1719 28.3337 28.2402 28.323 28.3037 28.2979C28.3671 28.2727 28.4241 28.2337 28.4704 28.1836C28.5845 28.0601 28.5869 27.825 28.5869 27.527C28.5869 27.229 28.5869 27.0279 28.4704 26.9019Z" fill="#A4A4A4"/>
<path d="M29.4028 28.6247V26.4609H30.7867V26.7565H29.7306V27.3889H30.6313V27.6797H29.7306V28.329H30.7867V28.6247H29.4028Z" fill="#A4A4A4"/>
<path d="M32.4303 28.6245L31.9739 27.7135H31.5611V28.6245H31.2334V26.4633H32.0734C32.1601 26.4557 32.2474 26.4666 32.3297 26.495C32.4119 26.5234 32.4872 26.5689 32.5507 26.6283C32.6141 26.6877 32.6643 26.7599 32.698 26.84C32.7316 26.9201 32.7479 27.0064 32.7459 27.0932C32.7509 27.2239 32.7107 27.3523 32.632 27.4569C32.5533 27.5615 32.4409 27.6358 32.3138 27.6675L32.7993 28.6367L32.4303 28.6245ZM32.0467 26.7686H31.5611V27.4446H32.0467C32.0936 27.4485 32.1408 27.4427 32.1853 27.4275C32.2298 27.4124 32.2707 27.3881 32.3054 27.3563C32.34 27.3246 32.3677 27.286 32.3866 27.243C32.4055 27.2 32.4153 27.1535 32.4153 27.1066C32.4153 27.0596 32.4055 27.0131 32.3866 26.9701C32.3677 26.9272 32.34 26.8885 32.3054 26.8568C32.2707 26.825 32.2298 26.8008 32.1853 26.7856C32.1408 26.7704 32.0936 26.7646 32.0467 26.7686Z" fill="#A4A4A4"/>
<path d="M34.8095 28.6247V27.1781L34.3094 28.2321H34.0666L33.5567 27.1781V28.6247H33.2266V26.4609H33.5567L34.188 27.8081L34.8095 26.4609H35.1372V28.6247H34.8095Z" fill="#A4A4A4"/>
<path d="M36.9432 28.6247L36.7952 28.1885H35.9309L35.7803 28.6247H35.4453L36.2392 26.4609H36.5038L37.2977 28.6247H36.9432ZM36.3752 26.9504L36.0377 27.9196H36.7029L36.3752 26.9504Z" fill="#A4A4A4"/>
<path d="M38.1501 26.7565V28.6247H37.8223V26.7565H37.2251V26.4609H38.7473V26.7565H38.1501Z" fill="#A4A4A4"/>
<path d="M40.3327 28.4112C40.2586 28.4881 40.1696 28.5493 40.0711 28.5909C39.9726 28.6326 39.8667 28.6539 39.7598 28.6535C39.6535 28.6541 39.5483 28.6328 39.4506 28.5911C39.3529 28.5495 39.2647 28.4882 39.1917 28.4112C38.978 28.198 38.9805 27.9581 38.9805 27.5438C38.9805 27.1295 38.9805 26.8872 39.1917 26.6739C39.2647 26.5969 39.3529 26.5357 39.4506 26.494C39.5483 26.4523 39.6535 26.4311 39.7598 26.4317C39.8667 26.4313 39.9726 26.4526 40.0711 26.4942C40.1696 26.5359 40.2586 26.597 40.3327 26.6739C40.544 26.8872 40.5391 27.127 40.5391 27.5438C40.5391 27.9605 40.5391 28.198 40.3327 28.4112ZM40.09 26.8726C40.0479 26.8299 39.9976 26.7961 39.9421 26.7732C39.8866 26.7503 39.8271 26.7388 39.7671 26.7394C39.707 26.7384 39.6473 26.7497 39.5918 26.7726C39.5362 26.7955 39.486 26.8296 39.4442 26.8726C39.3374 26.9865 39.3179 27.1149 39.3179 27.5438C39.3179 27.9727 39.3374 28.0987 39.4442 28.215C39.4863 28.2576 39.5366 28.2913 39.5921 28.3142C39.6476 28.3371 39.7071 28.3487 39.7671 28.3482C39.827 28.3483 39.8864 28.3365 39.9418 28.3136C39.9972 28.2908 40.0476 28.2572 40.09 28.215C40.1968 28.0987 40.2162 27.9727 40.2162 27.5438C40.2162 27.1149 40.1968 26.9865 40.09 26.8726Z" fill="#A4A4A4"/>
<path d="M41.0244 28.6247V26.4609H41.3522V28.329H42.3961V28.6247H41.0244Z" fill="#A4A4A4"/>
<path d="M43.9622 28.4114C43.8091 28.5592 43.6045 28.6418 43.3916 28.6418C43.1787 28.6418 42.9741 28.5592 42.8211 28.4114C42.6075 28.1982 42.6123 27.9584 42.6123 27.544C42.6123 27.1297 42.6123 26.8874 42.8211 26.6742C42.9741 26.5264 43.1787 26.4438 43.3916 26.4438C43.6045 26.4438 43.8091 26.5264 43.9622 26.6742C44.1758 26.8874 44.1685 27.1273 44.1685 27.544C44.1685 27.9608 44.1685 28.1982 43.9622 28.4114ZM43.7194 26.8729C43.6772 26.8306 43.6271 26.797 43.5719 26.7742C43.5167 26.7513 43.4575 26.7395 43.3977 26.7395C43.3379 26.7395 43.2787 26.7513 43.2235 26.7742C43.1683 26.797 43.1182 26.8306 43.076 26.8729C42.9692 26.9867 42.9473 27.1152 42.9473 27.544C42.9473 27.9729 42.9692 28.0989 43.076 28.2152C43.1182 28.2575 43.1683 28.291 43.2235 28.3139C43.2787 28.3368 43.3379 28.3486 43.3977 28.3486C43.4575 28.3486 43.5167 28.3368 43.5719 28.3139C43.6271 28.291 43.6772 28.2575 43.7194 28.2152C43.8262 28.0989 43.848 27.9729 43.848 27.544C43.848 27.1152 43.8262 26.9867 43.7194 26.8729Z" fill="#A4A4A4"/>
<path d="M45.9503 28.3967C45.8739 28.4767 45.7814 28.5397 45.6789 28.5815C45.5764 28.6232 45.4662 28.6428 45.3555 28.639C45.249 28.6389 45.1436 28.6174 45.0455 28.5758C44.9475 28.5341 44.8589 28.4733 44.785 28.3967C44.5737 28.1835 44.5762 27.9436 44.5762 27.5269C44.5762 27.1101 44.5762 26.8727 44.785 26.6595C44.8586 26.5826 44.9472 26.5215 45.0453 26.4798C45.1434 26.4382 45.2489 26.4169 45.3555 26.4172C45.5473 26.4092 45.735 26.4739 45.881 26.5985C46.0269 26.723 46.1202 26.898 46.1421 27.0883H45.8119C45.7958 26.9805 45.7403 26.8824 45.656 26.8131C45.5717 26.7437 45.4646 26.708 45.3555 26.7128C45.2957 26.7117 45.2364 26.7229 45.1813 26.7459C45.1261 26.7688 45.0763 26.8029 45.035 26.846C44.9282 26.9599 44.9039 27.0883 44.9039 27.5148C44.9039 27.9412 44.9282 28.0745 45.035 28.1908C45.0765 28.2335 45.1264 28.2671 45.1815 28.2896C45.2367 28.3121 45.2959 28.323 45.3555 28.3216C45.4217 28.323 45.4875 28.3101 45.5483 28.2838C45.609 28.2574 45.6634 28.2183 45.7075 28.169C45.7858 28.0738 45.8248 27.9526 45.8168 27.8298V27.7377H45.3555V27.459H46.1469V27.791C46.1574 27.9008 46.1454 28.0115 46.1116 28.1165C46.0778 28.2215 46.0229 28.3185 45.9503 28.4016" fill="#A4A4A4"/>
<path d="M46.9557 26.4634H46.6279V28.6247H46.9557V26.4634Z" fill="#A4A4A4"/>
<path d="M48.0992 28.6416C47.9582 28.6525 47.8165 28.6326 47.6839 28.5833C47.5514 28.5339 47.4313 28.4562 47.332 28.3556L47.5505 28.14C47.6223 28.2125 47.7089 28.2686 47.8045 28.3046C47.9 28.3405 48.0022 28.3555 48.1041 28.3484C48.3881 28.3484 48.5508 28.2272 48.5508 28.0164C48.5534 27.975 48.5472 27.9335 48.5325 27.8947C48.5179 27.8558 48.4951 27.8205 48.4658 27.7911C48.3984 27.7329 48.3121 27.7011 48.223 27.7014L47.9657 27.6651C47.814 27.6512 47.6705 27.5902 47.5554 27.4906C47.5013 27.4371 47.4592 27.3727 47.432 27.3017C47.4048 27.2306 47.3931 27.1546 47.3976 27.0787C47.3976 26.7008 47.6719 26.4439 48.1259 26.4439C48.2486 26.4368 48.3715 26.4546 48.4871 26.4962C48.6027 26.5379 48.7086 26.6025 48.7984 26.6862L48.5872 26.8946C48.5245 26.8358 48.4503 26.7906 48.3692 26.7619C48.2882 26.7331 48.202 26.7214 48.1162 26.7274C47.8734 26.7274 47.7205 26.8728 47.7205 27.0642C47.719 27.1017 47.7256 27.139 47.7398 27.1737C47.7541 27.2084 47.7756 27.2396 47.803 27.2653C47.8738 27.3192 47.9575 27.3535 48.0458 27.3646L48.2886 27.401C48.4372 27.4105 48.5791 27.4664 48.694 27.5609C48.7533 27.618 48.7995 27.6872 48.8297 27.7637C48.8598 27.8402 48.8732 27.9222 48.8688 28.0043C48.8688 28.4017 48.5435 28.6391 48.0919 28.6391" fill="#A4A4A4"/>
<path d="M50.051 26.7565V28.6247H49.7208V26.7565H49.126V26.4609H50.6458V26.7565H50.051Z" fill="#A4A4A4"/>
<path d="M51.5948 28.6417C51.4538 28.6527 51.3121 28.6328 51.1796 28.5834C51.047 28.534 50.9269 28.4563 50.8276 28.3558L51.0461 28.1401C51.1181 28.2123 51.2048 28.2683 51.3003 28.3042C51.3957 28.3402 51.4978 28.3553 51.5997 28.3485C51.8837 28.3485 52.0488 28.2273 52.0488 28.0165C52.0511 27.9749 52.0445 27.9333 52.0294 27.8945C52.0144 27.8556 51.9912 27.8204 51.9614 27.7912C51.894 27.733 51.8077 27.7012 51.7186 27.7016L51.4686 27.6652C51.316 27.6518 51.1716 27.5908 51.0558 27.4908C51.0017 27.4372 50.9597 27.3728 50.9325 27.3018C50.9053 27.2307 50.8935 27.1548 50.898 27.0789C50.898 26.7009 51.1724 26.444 51.6264 26.444C51.7491 26.4366 51.872 26.4543 51.9877 26.4959C52.1033 26.5376 52.2092 26.6024 52.2989 26.6863L52.0901 26.8947C52.0271 26.8363 51.9529 26.7913 51.8719 26.7626C51.7909 26.7338 51.7049 26.7219 51.6191 26.7275C51.3617 26.7275 51.2234 26.8729 51.2234 27.0643C51.2219 27.1018 51.2285 27.1391 51.2427 27.1738C51.257 27.2085 51.2785 27.2398 51.3059 27.2654C51.3762 27.3201 51.4602 27.3545 51.5487 27.3648L51.7915 27.4011C51.9401 27.4106 52.0819 27.4665 52.1969 27.561C52.257 27.6176 52.3039 27.6866 52.3346 27.7632C52.3652 27.8398 52.3787 27.9221 52.3741 28.0044C52.3741 28.4018 52.0488 28.6392 51.5948 28.6392" fill="#A4A4A4"/>
<path d="M70.8424 9.56543C67.0891 9.56543 64.2583 12.6353 64.2583 16.7084C64.2583 20.7814 67.2008 23.8488 71.1022 23.8488C73.411 23.8488 75.1493 23.059 76.7395 21.2878L76.8487 21.1666L75.3678 19.8437L75.2585 19.9576C74.0617 21.2102 72.7579 21.7942 71.1556 21.7942C68.7448 21.7942 66.9434 20.1126 66.6205 17.5927H77.2032L77.2202 17.4498C77.2413 17.238 77.2502 17.0253 77.2469 16.8125C77.2493 12.473 74.6734 9.56543 70.8424 9.56543ZM74.8871 15.7973H66.6327C66.9507 13.2992 68.6453 11.5692 70.8036 11.5692C73.4741 11.5692 74.671 13.7208 74.8992 15.7973" fill="white"/>
<path d="M75.3144 8.95997C75.0618 8.96093 74.8114 8.91194 74.5778 8.81581C74.3443 8.71968 74.1321 8.57833 73.9535 8.39991C73.775 8.22149 73.6336 8.00954 73.5376 7.7763C73.4416 7.54305 73.3928 7.29314 73.3941 7.04098C73.3931 6.65996 73.5055 6.28725 73.7171 5.97008C73.9286 5.65291 74.2298 5.40558 74.5824 5.25944C74.9349 5.1133 75.323 5.07494 75.6975 5.14921C76.0719 5.22349 76.4159 5.40706 76.6856 5.67664C76.9554 5.94623 77.1389 6.2897 77.2129 6.6635C77.2868 7.0373 77.2479 7.42459 77.101 7.77628C76.9541 8.12797 76.7059 8.42821 76.3879 8.63895C76.0698 8.84968 75.6962 8.96141 75.3144 8.95997ZM75.3144 5.32551C74.9742 5.32264 74.6408 5.42089 74.3567 5.60774C74.0727 5.79459 73.8507 6.0616 73.7192 6.37476C73.5877 6.68792 73.5525 7.03307 73.6182 7.36624C73.6838 7.69942 73.8474 8.00555 74.0879 8.24566C74.3285 8.48577 74.6353 8.64898 74.9691 8.71452C75.3029 8.78006 75.6488 8.74496 75.9626 8.61369C76.2763 8.48242 76.5439 8.26092 76.7311 7.97739C76.9183 7.69387 77.0168 7.36114 77.0139 7.02159C77.0139 6.57177 76.8348 6.14036 76.5161 5.82228C76.1974 5.50421 75.7652 5.32551 75.3144 5.32551ZM75.8 7.26389L76.3001 7.99078H75.7733L75.3363 7.33173H74.9794V7.99078H74.5327V5.95791H75.4431C75.9287 5.95791 76.2467 6.20021 76.2467 6.63392C76.2533 6.77352 76.2136 6.9114 76.1337 7.02618C76.0539 7.14096 75.9382 7.22622 75.8048 7.26874M75.4261 6.3577H74.9843V6.95617H75.4383C75.6665 6.95617 75.7903 6.83502 75.7903 6.65815C75.7903 6.48127 75.6495 6.3577 75.4261 6.3577Z" fill="white"/>
</g>
<defs>
<clipPath id="clip0_701_4166">
<rect width="80" height="27.7333" fill="white" transform="translate(0 0.842773)"/>
</clipPath>
</defs>
</svg>
