<svg width="80" height="33" viewBox="0 0 80 33" fill="none" xmlns="http://www.w3.org/2000/svg">
<g clip-path="url(#clip0_701_4149)">
<path d="M48.2685 14.3484C50.8548 14.3484 51.5262 13.9507 53.0929 13.901C54.8585 13.8513 55.704 14.1496 55.704 14.1496C55.5797 13.6525 55.4802 13.1057 56.0273 11.6889C56.4252 10.6699 56.8728 9.45195 57.3204 8.30861C58.34 5.62425 56.1517 4.45605 52.5707 4.45605C50.3326 4.45605 49.1886 4.6549 47.9701 4.85374L47.1246 7.04099C47.9204 6.79244 49.6611 6.34505 52.1728 6.3699C54.5352 6.39476 54.3363 7.36411 54.1871 7.83636C53.3664 7.78665 51.8744 7.71208 50.1834 7.83636C49.0892 7.91093 48.0447 8.06006 46.9754 8.4826C45.3839 9.10397 44.6627 10.2225 44.5632 11.5149C44.4637 12.9565 45.4833 14.3484 48.2685 14.3484ZM47.995 11.1172C48.1442 10.2722 48.7908 9.82478 50.5564 9.62593C51.4516 9.52651 52.2723 9.50166 53.4908 9.57622L52.6701 11.7138C51.949 12.0866 50.9045 12.3103 49.9347 12.36C48.3183 12.4097 47.8706 11.7883 47.995 11.1172Z" fill="#A4A4A4"/>
<path d="M27.9016 14.1498L32.9001 1.25H29.5926L24.5693 14.1498H27.9016Z" fill="#A4A4A4"/>
<path d="M32.0792 13.3046C32.7009 13.9757 33.6211 14.2243 34.7152 14.274C36.3317 14.3486 37.8237 14.0254 39.2412 13.1058C38.4206 15.5665 35.5856 16.0884 33.6708 16.0636C32.7507 16.0636 31.7311 16.0139 30.9104 15.641L30.0649 17.7289C30.9104 17.9526 32.1538 18.1017 33.1486 18.1017C37.8237 18.1017 40.8327 16.4364 42.0761 13.1555L45.2592 4.75446C45.2592 4.75446 44.3142 5.00301 43.6677 5.00301C41.9518 5.00301 41.8772 4.53076 39.092 4.53076C35.0883 4.53076 31.8057 7.46367 31.3332 10.7197C31.2089 11.7388 31.4824 12.6584 32.0792 13.3046ZM35.2375 9.15383C36.1078 7.26483 37.8735 6.3949 39.0174 6.37005C39.8629 6.34519 40.5592 6.46947 41.1063 6.99143C39.7883 12.1116 37.1274 12.5093 36.3317 12.5093C34.392 12.5093 34.566 10.6203 35.2375 9.15383Z" fill="#A4A4A4"/>
<path d="M3.92895 8.40826C4.47605 5.35108 7.43533 3.03954 10.9417 3.03954C12.011 3.03954 12.9809 3.23838 13.8512 3.61121L14.8708 1.6228C14.0004 1.22511 12.7819 0.976562 11.638 0.976562C6.04272 0.976562 0.820468 4.15803 0.0744314 8.40826C-0.572134 12.1614 2.66069 14.2492 6.63955 14.2492C7.70887 14.2492 8.90253 14.0752 9.87238 13.8515L10.9417 11.4655C10.3449 11.7637 8.8528 12.1863 7.70887 12.1863C4.55065 12.1863 3.60567 10.2724 3.92895 8.40826Z" fill="#A4A4A4"/>
<path d="M73.1114 4.38184C69.5056 4.38184 66.422 6.39511 65.6262 9.27831C65.2283 10.7448 65.4272 12.0124 66.223 12.9817C67.0934 14.0505 68.6352 14.6222 70.55 14.6222C71.6691 14.6222 72.9871 14.4233 74.2056 14.0505L75.2003 12.0124C74.2802 12.4598 72.6638 12.7083 71.5945 12.7083C70.6495 12.7083 69.8786 12.3852 69.431 11.8135C69.0082 11.2916 68.9088 10.5956 69.1077 9.84998H76.7421L76.767 9.75056C77.3638 8.08526 77.2892 6.64366 76.5432 5.69916C75.8966 4.82923 74.7278 4.38184 73.1114 4.38184ZM73.9569 8.23439H69.6299C69.9532 7.21533 70.9231 6.07199 72.6638 6.07199C73.2606 6.07199 73.6834 6.22112 73.9321 6.51938C74.2056 6.89221 74.2056 7.48873 73.9569 8.23439Z" fill="#A4A4A4"/>
<path d="M78.9304 3.98408C79.1045 3.90951 79.2288 3.81009 79.2288 3.68582C79.2288 3.56154 79.1791 3.46212 79.1045 3.41241C79.005 3.33784 78.8807 3.31299 78.5823 3.31299C78.3087 3.31299 78.1098 3.33784 78.0352 3.3627V4.63031H78.433V4.15806H78.5574C78.6817 4.15806 78.7563 4.23263 78.7812 4.35691C78.8061 4.48118 78.8309 4.5806 78.8807 4.63031H79.3283C79.3034 4.5806 79.2786 4.50604 79.2288 4.33205C79.1542 4.13321 79.0547 4.03379 78.9304 3.98408ZM78.5325 3.88466H78.4082V3.5864C78.433 3.5864 78.4828 3.5864 78.5325 3.5864C78.6569 3.5864 78.7563 3.63611 78.7563 3.73553C78.7563 3.83495 78.6817 3.88466 78.5325 3.88466Z" fill="#A4A4A4"/>
<path d="M78.6074 2.59229H78.5825C77.7867 2.59229 77.165 3.21366 77.165 3.95932C77.165 4.72983 77.7867 5.35121 78.5825 5.35121C79.3783 5.35121 80 4.72983 80 3.95932C80 3.21366 79.3783 2.59229 78.6074 2.59229ZM78.5825 5.00324C78.0106 5.00324 77.5878 4.53099 77.5878 3.98418C77.5878 3.41251 78.0105 2.94026 78.5576 2.94026C79.1545 2.94026 79.5772 3.38765 79.5772 3.95932C79.5772 4.53099 79.1545 5.00324 78.5825 5.00324Z" fill="#A4A4A4"/>
<path d="M50.208 25.807C46.7016 27.522 42.8471 28.392 38.9677 28.392C35.0883 28.392 31.2586 27.4972 27.7274 25.7822C24.221 24.092 21.0628 21.5816 18.3771 18.5493L17.4072 21.01C19.5707 24.2412 22.5549 27.0249 26.0115 29.0134C29.8909 31.2503 34.4169 32.4682 38.9428 32.4434C43.4688 32.4434 47.9947 31.2255 51.8741 28.9885C55.3556 27.0001 58.3149 24.2163 60.5033 20.9603L59.5832 18.5742C56.8974 21.6065 53.7392 24.1169 50.208 25.807Z" fill="#A4A4A4"/>
<path d="M24.8182 8.80585C25.4399 6.07178 23.0277 4.53076 19.8446 4.53076C16.4875 4.53076 12.7821 6.54403 12.0858 9.94919C11.3647 13.578 14.5975 14.3486 16.6615 14.3734C21.3118 14.4231 24.1468 11.6393 24.8182 8.80585ZM21.4113 8.38332C20.5658 12.5341 18.0293 12.7578 17.5568 12.7578C16.761 12.7578 16.1642 12.559 15.8409 12.1613C15.4679 11.7388 15.3684 11.0677 15.5673 10.1729C15.8906 8.5573 17.2832 6.1712 19.7949 6.1712C20.3917 6.1712 20.8642 6.34519 21.1377 6.66831C21.4362 7.06599 21.5605 7.66251 21.4113 8.38332Z" fill="#A4A4A4"/>
<path d="M61.8212 12.0373C61.6223 11.7638 61.672 11.217 61.9704 10.4465C61.9704 10.4465 63.5122 6.66854 63.7609 6.0223H66.0985L66.6953 4.48128H64.3578L65.0541 2.59229L61.5228 3.18881L61.0503 4.45642H59.4837L58.9117 5.99745H60.4535L58.5884 10.5957C58.1159 11.7638 58.0911 12.6089 58.5138 13.2055C58.9366 13.7771 59.7572 14.0505 61.0503 14.0505C61.7715 14.0505 62.7413 13.9014 63.5122 13.7026L64.2583 11.8881C63.8355 12.0621 63.1392 12.2361 62.5921 12.261C62.1943 12.3107 61.9704 12.2361 61.8212 12.0373Z" fill="#A4A4A4"/>
</g>
<defs>
<clipPath id="clip0_701_4149">
<rect width="80" height="31.4667" fill="white" transform="translate(0 0.976562)"/>
</clipPath>
</defs>
</svg>
